<?xml version="1.0" encoding="utf-8"?>
<!-- Generator: Adobe Illustrator 16.0.0, SVG Export Plug-In . SVG Version: 6.00 Build 0)  -->
<!DOCTYPE svg PUBLIC "-//W3C//DTD SVG 1.1//EN" "http://www.w3.org/Graphics/SVG/1.1/DTD/svg11.dtd">
<svg version="1.1" id="Layer_1" xmlns="http://www.w3.org/2000/svg" xmlns:xlink="http://www.w3.org/1999/xlink" x="0px" y="0px"
	 width="1288px" height="242px" viewBox="0 0 1288 242" enable-background="new 0 0 1288 242" xml:space="preserve">
<g>
	<path fill-rule="evenodd" clip-rule="evenodd" fill="#EE3624" d="M16.27,10.128c35.312,0.046,70.638-0.484,105.933,0.325
		c27.207,0.624,48.524,19.104,53.113,44.346c5.194,28.574-9.632,52.972-32.504,59.519c-0.581,0.166-1.054,0.705-1.835,1.25
		c21.801,6.241,34.815,20.671,38.478,42.289c6.042,35.67-13.632,64.981-50.803,69.127c-8.244,0.919-16.615,0.895-24.929,0.938
		c-29.15,0.155-58.301,0.15-87.452,0.206C16.27,155.461,16.27,82.795,16.27,10.128z M63.215,186.509
		c0.606,0.208,1.21,0.596,1.814,0.597c14.632,0.024,29.29,0.542,43.89-0.15c15.108-0.717,24.091-10.002,24.492-23.685
		c0.403-13.748-7.895-23.664-22.692-25.44c-9.352-1.123-18.906-0.609-28.37-0.741c-6.271-0.087-12.545-0.016-19.134-0.016
		C63.215,153.738,63.215,169.803,63.215,186.509z M62.895,96.511c13.64,0,26.591,0.023,39.542-0.02
		c2.492-0.009,5.041,0.012,7.465-0.476c9.145-1.836,16.032-6.525,18.427-16.057c3.819-15.197-5.867-28.326-21.591-29.105
		c-7.311-0.361-14.652-0.1-21.98-0.107c-7.106-0.009-14.213-0.002-21.541-0.002c-0.145,1.574-0.31,2.534-0.311,3.494
		C62.889,68.043,62.895,81.848,62.895,96.511z"/>
	<path fill-rule="evenodd" clip-rule="evenodd" fill="#EE3624" d="M858.27,232.128c-5.52-1.027-11.098-1.814-16.551-3.121
		c-42.695-10.233-64.45-46.982-60.719-87.586c3.125-33.999,20.263-58.855,52.909-70.362c45.576-16.066,98.43,5.625,106.229,66.268
		c1.03,8.012,0.979,16.163,1.469,24.969c-20.374,0-39.814,0-59.256,0c-19.269,0-38.538,0-58.444,0
		c2.728,14.941,10.262,25.421,23.4,30.992c21.348,9.054,41.347,4.541,60.203-7.595c1.114-0.717,2.142-1.569,3.225-2.339
		c0.107-0.076,0.317-0.01,1.072-0.01c5.769,8.491,11.725,17.26,18.418,27.114c-6.071,3.787-11.672,7.891-17.79,10.966
		c-11.254,5.655-23.354,8.653-35.927,9.7c-1.431,0.119-2.827,0.659-4.239,1.004C867.603,232.128,862.937,232.128,858.27,232.128z
		 M900.981,133.6c0.819-19.579-17.835-34.531-41.453-33.599c-19.647,0.775-37.111,17.412-35.014,33.599
		C849.991,133.6,875.494,133.6,900.981,133.6z"/>
	<path fill-rule="evenodd" clip-rule="evenodd" fill="#EE3624" d="M1027.27,232.128c-6.792-1.367-13.695-2.333-20.358-4.171
		c-31.82-8.778-53.77-35.685-56.658-68.573c-2.726-31.021,6.266-57.311,31.168-76.881c37.736-29.655,111.897-22.928,126.628,47.237
		c1.056,5.028,1.676,10.188,1.994,15.318c0.339,5.448,0.076,10.934,0.076,17.236c-19.707,0-39.113,0-58.52,0
		c-19.295,0-38.59,0-58.409,0c1.017,8.77,4.424,15.823,10.075,21.656c12.933,13.348,29.072,15.86,46.51,12.8
		c11.114-1.951,21.372-6.172,30.603-14.082c6.213,9.107,12.252,17.96,18.824,27.594c-4.9,3.279-9.34,6.747-14.217,9.415
		c-12.122,6.632-25.242,10.131-38.98,11.417c-1.597,0.149-3.157,0.68-4.735,1.033
		C1036.603,232.128,1031.937,232.128,1027.27,232.128z M993.47,133.572c25.505,0,51.035,0,76.544,0
		c0.984-18.977-17.23-34.052-40.117-33.605C1009.588,100.362,992.007,116.424,993.47,133.572z"/>
	<path fill-rule="evenodd" clip-rule="evenodd" fill="#EE3624" d="M253.27,232.128c-5.002-1.024-10.037-1.911-15.001-3.095
		c-30.748-7.328-48.911-30.344-48.938-61.982c-0.025-30.327-0.005-60.653-0.005-90.98c0-1.66,0-3.32,0-5.434
		c13.765,0,27.304,0,41.561,0c0,1.904,0,3.848,0,5.791c0,28.661,0.084,57.321-0.038,85.981c-0.056,13,3.92,24.009,16.239,29.666
		c13.35,6.131,27.023,5.908,39.374-2.889c9.046-6.442,11.604-16.301,11.623-26.895c0.054-28.494,0.019-56.988,0.019-85.481
		c0-1.972,0-3.942,0-6.266c13.732,0,26.986,0,41.111,0c0,1.798,0.001,3.708,0.001,5.617c0,29.994,0.014,59.988-0.004,89.981
		c-0.021,36.194-22.548,61.073-58.651,64.866c-1.782,0.187-3.527,0.737-5.29,1.118C267.937,232.128,260.603,232.128,253.27,232.128z
		"/>
	<path fill-rule="evenodd" clip-rule="evenodd" fill="#EE3624" d="M645.708,227.628c0-72.547,0-144.793,0-217.353
		c50.343,0,100.414,0,151.178,0c0,7.182,0,14.133,0,21.084c0,4.666-0.313,9.359,0.088,13.991c0.398,4.612-1.454,5.507-5.698,5.483
		c-29.829-0.17-59.66-0.09-89.49-0.09c-2.991,0-5.981,0-9.435,0c0,15.15,0,30.031,0,45.768c1.8,0,3.715,0,5.63,0
		c22.498,0,44.997,0.129,67.492-0.107c4.548-0.047,5.612,1.399,5.508,5.693c-0.279,11.452-0.096,22.915-0.096,34.941
		c-26.467,0-52.369,0-78.873,0c0,30.466,0,60.364,0,90.589C676.332,227.628,661.257,227.628,645.708,227.628z"/>
	<path fill-rule="evenodd" clip-rule="evenodd" fill="#EE3624" d="M1120.653,227.543c0-2.104,0-3.91,0-5.718
		c0-48.641-0.001-97.281,0.002-145.923c0-6.385,0.007-6.441,6.597-6.38c22.81,0.21,45.713-0.762,68.404,0.995
		c32.335,2.502,57.642,17.065,69.623,48.983c12.175,32.433,2.895,69.45-21.844,89.729c-14.575,11.947-31.726,17.829-50.199,18.496
		c-23.457,0.848-46.966,0.267-70.452,0.285C1122.307,228.011,1121.829,227.809,1120.653,227.543z M1160.289,194.183
		c7.967,0,15.426,0.002,22.884,0c26.839-0.008,43.738-15.133,46.746-41.838c2.159-19.174-8.212-38.245-24.729-45.016
		c-14.549-5.962-29.748-2.792-44.9-3.635C1160.289,134.143,1160.289,163.747,1160.289,194.183z"/>
	<path fill-rule="evenodd" clip-rule="evenodd" fill="#EE3624" d="M423,106.14c-24.082,0-47.013,0-70.419,0
		c0-12.032,0-23.701,0-35.666c42.244,0,84.322,0,127.305,0c0,6.729-0.338,13.491,0.099,20.205c0.402,6.189-1.482,10.97-5.388,15.829
		c-21.173,26.348-42.012,52.961-62.96,79.488c-1.124,1.423-2.193,2.889-3.944,5.201c24.763,0,48.719,0,73.038,0
		c0,12.464,0,24.199,0,36.351c-42.504,0-85.185,0-128.537,0c0-9.929-0.145-19.854,0.138-29.768c0.049-1.702,1.759-3.475,2.964-5.009
		c21.491-27.371,43.025-54.707,64.537-82.062C420.729,109.568,421.493,108.322,423,106.14z"/>
	<path fill-rule="evenodd" clip-rule="evenodd" fill="#EE3624" d="M492.108,106.18c0-11.255-0.01-21.572,0.014-31.89
		c0.002-1.138,0.191-2.276,0.325-3.752c42.194,0,84.235,0,126.912,0c0,9.589,0.105,19.024-0.112,28.452
		c-0.033,1.421-1.434,2.918-2.438,4.193c-21.853,27.732-43.741,55.436-65.61,83.155c-1.08,1.369-2.044,2.831-3.726,5.173
		c2.852,0,4.611,0,6.371,0c20.658,0,41.317,0.086,61.975-0.075c3.838-0.03,5.271,0.913,5.159,5.004
		c-0.281,10.289-0.093,20.591-0.093,31.199c-43.036,0-85.571,0-128.654,0c0-10.276-0.082-20.38,0.104-30.479
		c0.023-1.265,1.351-2.588,2.256-3.74c20.985-26.72,41.997-53.418,63-80.124c1.604-2.041,3.174-4.109,5.495-7.117
		C538.865,106.18,515.847,106.18,492.108,106.18z"/>
</g>
</svg>
